<?xml version="1.0" encoding="utf-8" ?>
<svg baseProfile="tiny" height="500" version="1.2" width="500" xmlns="http://www.w3.org/2000/svg" xmlns:ev="http://www.w3.org/2001/xml-events" xmlns:xlink="http://www.w3.org/1999/xlink"><defs /><rect fill="#f3ff00" height="500" width="500" x="0" y="0" /><circle cx="250.0" cy="250.0" fill="none" r="250.0" stroke="black" /><line stroke="black" x1="498.6305" x2="103.0537" y1="276.1321" y2="452.2542" /><line stroke="black" x1="487.7641" x2="301.9779" y1="172.7458" y2="494.5369" /><line stroke="black" x1="498.6305" x2="396.9463" y1="276.1321" y2="452.2542" /><line stroke="black" x1="487.7641" x2="33.4936" y1="172.7458" y2="375.0" /><line stroke="black" x1="466.5064" x2="301.9779" y1="375.0" y2="494.5369" /><line stroke="black" x1="198.0221" x2="103.0537" y1="494.5369" y2="452.2542" /><line stroke="black" x1="103.0537" x2="148.3158" y1="452.2542" y2="21.6136" /><line stroke="black" x1="33.4936" x2="12.2359" y1="375.0" y2="172.7458" /><line stroke="black" x1="250.0" x2="1.3695" y1="0.0" y2="276.1321" /><line stroke="black" x1="435.7862" x2="198.0221" y1="82.7173" y2="494.5369" /><line stroke="black" x1="435.7862" x2="148.3158" y1="82.7173" y2="21.6136" /><line stroke="black" x1="396.9463" x2="198.0221" y1="452.2542" y2="494.5369" /><line stroke="black" x1="396.9463" x2="148.3158" y1="452.2542" y2="21.6136" /><line stroke="black" x1="301.9779" x2="64.2138" y1="494.5369" y2="82.7173" /><line stroke="black" x1="498.6305" x2="466.5064" y1="276.1321" y2="375.0" /><line stroke="black" x1="498.6305" x2="1.3695" y1="276.1321" y2="276.1321" /><line stroke="black" x1="466.5064" x2="12.2359" y1="375.0" y2="172.7458" /><line stroke="black" x1="250.0" x2="351.6842" y1="0.0" y2="21.6136" /><line stroke="black" x1="351.6842" x2="435.7862" y1="21.6136" y2="82.7173" /><line stroke="black" x1="103.0537" x2="64.2138" y1="452.2542" y2="82.7173" /><line stroke="black" x1="33.4936" x2="148.3158" y1="375.0" y2="21.6136" /><line stroke="black" x1="435.7862" x2="33.4936" y1="82.7173" y2="375.0" /><line stroke="black" x1="351.6842" x2="148.3158" y1="21.6136" y2="21.6136" /><line stroke="black" x1="396.9463" x2="64.2138" y1="452.2542" y2="82.7173" /><line stroke="black" x1="301.9779" x2="12.2359" y1="494.5369" y2="172.7458" /><line stroke="black" x1="498.6305" x2="301.9779" y1="276.1321" y2="494.5369" /><line stroke="black" x1="487.7641" x2="466.5064" y1="172.7458" y2="375.0" /><line stroke="black" x1="498.6305" x2="33.4936" y1="276.1321" y2="375.0" /><line stroke="black" x1="466.5064" x2="198.0221" y1="375.0" y2="494.5369" /><line stroke="black" x1="466.5064" x2="148.3158" y1="375.0" y2="21.6136" /><line stroke="black" x1="33.4936" x2="64.2138" y1="375.0" y2="82.7173" /><line stroke="black" x1="435.7862" x2="487.7641" y1="82.7173" y2="172.7458" /><line stroke="black" x1="198.0221" x2="64.2138" y1="494.5369" y2="82.7173" /><line stroke="black" x1="435.7862" x2="12.2359" y1="82.7173" y2="172.7458" /><line stroke="black" x1="301.9779" x2="1.3695" y1="494.5369" y2="276.1321" /></svg>